
<svg data-name="Layer 1" id="Layer_1" viewBox="0 0 557.54 162.31" xmlns="http://www.w3.org/2000/svg" xmlns:xlink="http://www.w3.org/1999/xlink"><defs>
<style type="text/css">.cls-1{fill:none;}.cls-2{fill:#178CE0;}.cls-3{clip-path:url(#clip-path);}
</style>
<clipPath id="clip-path" transform="translate(-80.23 -119.76)"><path class="cls-1" d="M565.81,185.53C502.09,174.76,431.3,167,356.74,167c-78.22,0-145.31,7.92-209,18.69V118.6H565.81v66.93Z"></path></clipPath></defs>
<title></title>
<polygon class="cls-2" points="104.21 71.14 0 71.14 0 87.98 42.49 87.98 42.49 160.15 61.48 160.15 61.48 87.98 104.21 87.98 104.21 71.14"></polygon><path class="cls-2" d="M241.72,188.15c-33.46,0-56.83,19.28-56.83,46.9a43.38,43.38,0,0,0,15.57,33.5c10.4,8.85,24.66,13.52,41.26,13.52s31-4.67,41.42-13.52A43.3,43.3,0,0,0,298.79,235C298.79,207.43,275.33,188.15,241.72,188.15Zm0,77.32c-25.56,0-37-15.28-37-30.42,0-18.12,14.87-30.3,37-30.3,11.47,0,21,3.08,27.68,8.91A27.62,27.62,0,0,1,278.85,235C278.85,253.24,263.93,265.47,241.72,265.47Z" transform="translate(-80.23 -119.76)"></path><path class="cls-2" d="M407.23,204c-10.79-8.67-26.39-13.07-46.39-13.07h-48v89h48c19.37,0,35.32-4.58,46.12-13.25a39.45,39.45,0,0,0,15.15-31.25C422.1,222.67,417,211.8,407.23,204Zm-46.51,59.34H331.62V207.74h29.11c26.56,0,41.19,9.83,41.19,27.67S386.9,263.32,360.72,263.32Z" transform="translate(-80.23 -119.76)"></path><path class="cls-2" d="M467.25,190.42l-48.67,89.49H439.7l12.57-23.46h51.83l12.45,23.46H538l-48.67-89.49H467.25Zm-7.07,50.63,17.94-33.94L496,241.05H460.18Z" transform="translate(-80.23 -119.76)"></path><polygon class="cls-2" points="531.21 71.14 495.34 105.03 459.71 71.14 432.42 71.14 485.54 120.92 485.54 160.15 504.41 160.15 504.41 120.92 557.54 71.14 531.21 71.14"></polygon><g class="cls-3"><path class="cls-2" d="M201,147.61v-0.18c5.21-1.33,12.29-4.88,12.29-13.22a12.18,12.18,0,0,0-4.95-10.11c-2.92-2-6.89-3-13.52-3H171.6v2.57c6.89,0.53,7.34,1.06,7.34,8.43V168.7c0,7-.65,8.09-7.94,9.74l-0.1,2.39L191,178.75c7,0,13.08-1.06,17.5-3.64,5.21-2.84,8.4-7.45,8.4-13.39C216.85,152.94,210,148.94,201,147.61Zm-13.88-18.36c0-2.66.26-3.73,1.06-4.26a10,10,0,0,1,4.86-1c7.69,0,11.31,5,11.31,11.35,0,7.36-4,11.18-13.52,11.18h-3.71v-17.3Zm7.16,46.31c-5.48.09-7.16-1.69-7.16-8.07V149.65h3.62c10.61,0,16.62,4,16.62,13C207.4,171.83,201.12,175.56,194.31,175.56Z" transform="translate(-80.23 -119.76)"></path><path class="cls-2" d="M267.09,172.63c-1.94,2.22-4.6,2.93-11,2.93-4.15,0-7.25,0-8.93-1.06s-2.12-3-2.12-7.27V150.81h8c7.69,0,8.4.53,9.55,6.83h2.65V140.52h-2.65c-1.15,5.94-1.68,6.65-9.55,6.65h-8v-20c0-2.66.18-2.93,3-2.93h6.36c6.1,0,8.48.62,9.72,2.48a20.93,20.93,0,0,1,3,7.63l2.65-.44c-0.26-4.7-.71-10.82-0.8-12.86H229.26v2.57c6.81,0.62,7.51.89,7.51,8.87v35c0,7.36-.71,8-8.66,8.6v2.57h43c0.8-2.75,2.56-10,3.09-13.06l-2.65-.44A24.12,24.12,0,0,1,267.09,172.63Z" transform="translate(-80.23 -119.76)"></path><path class="cls-2" d="M314.65,123.66c6.89,0.71,7.07,1.51,5.21,5.77-2.47,5.5-7.16,14.1-10.25,19.87-3.8-6.65-8-13.84-11.58-20.76-1.59-3-1.86-4.08,4.42-4.88v-2.57H280.62v2.57c5.21,0.53,6.28,1.51,9.72,7.54,4.95,8.43,8.13,14.19,11.14,19.6,1.33,2.48,1.68,3.37,1.68,5.23v11.44c0,7.54-.71,8.16-8.57,8.69v2.57h25.63v-2.57c-8-.53-8.75-1.15-8.75-8.69v-12a9.65,9.65,0,0,1,1.5-5.68c4.15-7.89,7.07-12.86,11-19.07,3.36-5.32,4.51-6.39,10.52-7.1v-2.57h-19.8v2.57Z" transform="translate(-80.23 -119.76)"></path><path class="cls-2" d="M372.45,119.76c-18.91,0-30.05,14.81-30.05,30.69,0,17,12.64,29.63,29,29.63s29.7-11.71,29.7-30.87C401.08,131.47,387.56,119.76,372.45,119.76Zm0.8,57c-12.29,0-20.95-12.33-20.95-28.65,0-16.5,8.66-25.1,18.21-25.1,11.49,0,20.68,10,20.68,28.56C391.18,168.55,382.79,176.8,373.24,176.8Z" transform="translate(-80.23 -119.76)"></path><path class="cls-2" d="M454.81,123.66c6.19,0.35,8.22,1.51,8.66,5.5a133.1,133.1,0,0,1,.62,14.73v20.67h-0.26L427.5,121.09H413.89v2.57c4.07,0.35,6,1.06,7.78,3.28,1.59,2,1.77,2.75,1.77,9v19.34a146.42,146.42,0,0,1-.62,15.08c-0.44,4.26-2.65,5.41-7.69,5.77v2.57h21.12v-2.57c-6.19-.35-8.13-1.51-8.57-5.94a148.42,148.42,0,0,1-.53-14.9V133.51h0.18l37.47,46.13h3V143.89c0-8.16.26-12.15,0.53-14.9,0.44-3.9,2.47-5.06,7.42-5.32v-2.57H454.81v2.57Z" transform="translate(-80.23 -119.76)"></path><path class="cls-2" d="M540.14,128.63c-5.48-5.23-13.88-7.54-25.1-7.54H489.85v2.66c6.81,0.53,7.51.89,7.51,8.52v35.31c0,7.54-.8,8.07-8.22,8.6v2.57h21.21c10.87,0,19.8-2.31,26.43-7.36s10.87-13,10.87-23.69C547.66,139.36,544.47,132.89,540.14,128.63Zm-25.45,46.75c-6.36,0-9-1.77-9-8.43V130.31c0-3.28.26-4.35,1.15-5.06s3-1.06,6.63-1.06c5.92,0,11,1.24,14.94,4,6.54,4.08,9.81,11.8,9.81,20.85C538.2,163.49,530.42,175.38,514.69,175.38Z" transform="translate(-80.23 -119.76)"></path></g><path class="cls-2" d="M560.94,182.47c-60.62-14.5-130.2-22.75-204.2-22.75S213.2,168,152.59,182.45l0.53,2.51a1196.86,1196.86,0,0,1,203.62-17.81A1196.81,1196.81,0,0,1,560.41,185Z" transform="translate(-80.23 -119.76)"></path></svg>